<?xml version="1.0" encoding="UTF-8"?>
<svg version="1.1" viewBox="0 0 1600 1600" width="42" height="42" xmlns="http://www.w3.org/2000/svg">
<path transform="translate(0)" d="m0 0h1600v1600h-1600v-1600z" fill="#FEFFFF"/>
<path transform="translate(351 277)" d="m0 0c1.76 0.61 1.76 0.61 3.55 1.24 0.96 0.34 0.96 0.34 1.95 0.68 2.08 0.72 4.15 1.46 6.23 2.2 1.44 0.5 2.88 1.01 4.32 1.51 28.9 10.2 28.9 10.2 41.9 16.3 3.21 1.43 6.49 2.62 9.8 3.81 14.9 5.46 29.6 12 43.7 19.3 3.93 2.01 7.89 3.94 11.9 5.82 14.5 6.81 28.4 14.2 42.3 22.3 2.13 1.23 4.26 2.46 6.39 3.68l6.36 3.69c0.96 0.56 1.93 1.12 2.92 1.7 6.55 3.82 13 7.82 19.3 11.9 0.81 0.52 1.63 1.04 2.47 1.57 11.1 7.11 22 14.4 32.7 22.1 1.64 1.18 3.29 2.35 4.93 3.52 5.49 3.92 10.7 8.06 15.9 12.4 3.35 2.75 6.74 5.44 10.2 8.11 0.59 0.47 1.19 0.94 1.8 1.42 3.25 2.55 6.54 5.03 9.89 7.46 1.03 0.8 2.06 1.61 3.12 2.44v2c0.55 0.24 1.1 0.49 1.67 0.75 2.78 1.49 5.11 3.28 7.58 5.25 0.89 0.7 1.79 1.4 2.7 2.12 1.02 0.93 1.02 0.93 2.05 1.88v2c0.84 0.34 0.84 0.34 1.69 0.68 2.96 1.69 4.93 3.88 7.31 6.32 1.86 1.58 3.75 3.13 5.65 4.67 0.44 0.43 0.89 0.87 1.35 1.33v2c0.58 0.26 1.16 0.53 1.76 0.8 6.99 3.73 12.2 10.2 17.2 16.2 3.85 4.57 7.68 8.68 12.3 12.5 2.87 2.53 5.5 5.37 7.71 8.51v2h2v2h2c0.08 0.62 0.17 1.23 0.25 1.87 0.25 0.7 0.5 1.4 0.75 2.13 0.87 0.4 0.87 0.4 1.75 0.81 2.97 1.56 4.12 3.65 5.97 6.39 1.82 2.55 4.04 4.61 6.28 6.8 5 5.5 5 5.5 5 8 0.99 0.33 1.98 0.66 3 1 0.97 1.37 1.93 2.75 2.82 4.17 1.83 2.83 3.93 5.44 6.01 8.09 1.17 1.74 1.17 1.74 1.17 3.74 0.99 0.33 1.98 0.66 3 1 0.33 1.33 0.67 2.66 1 4 0.99 0.33 1.98 0.66 3 1 1.61 1.99 1.61 1.99 3.19 4.43 0.53 0.81 1.06 1.61 1.6 2.44 1.21 2.13 1.21 2.13 1.21 4.13h2c1.55 2.11 2.97 4.23 4.38 6.43 4.3 6.63 8.78 13.1 13.4 19.5 3.01 4.19 5.61 8.47 8.07 13 1.47 2.69 3.07 5.29 4.69 7.89 16.8 27.1 16.8 27.1 23.2 40.6 1.56 3.25 3.13 6.5 4.7 9.75 1.88 3.88 3.75 7.75 5.62 11.6 0.44 0.91 0.44 0.91 0.88 1.83 0.85 1.77 1.7 3.54 2.55 5.31 1.14 2.33 2.3 4.65 3.49 6.95 2.9 5.76 5.35 11.7 7.86 17.7 0.89 2.12 1.81 4.24 2.72 6.36 0.57 1.36 1.14 2.72 1.72 4.08 0.41 0.94 0.41 0.94 0.82 1.9 1.45 3.48 2.37 6.32 1.88 10.1-1.91 2.21-1.91 2.21-4.5 4.37-0.92 0.79-1.84 1.58-2.8 2.39-0.89 0.74-1.78 1.48-2.7 2.24-12.4 10.5-23.2 22-33 35-1.22 1.58-2.45 3.17-3.69 4.75-0.54 0.7-1.08 1.4-1.64 2.12-1.18 1.5-2.38 2.99-3.59 4.47-4.36 5.34-8.29 10.8-12 16.6-1.59 2.37-3.23 4.61-4.96 6.87-3.16 4.19-5.9 8.56-8.6 13.1-0.48 0.79-0.96 1.59-1.45 2.4-0.94 1.56-1.87 3.11-2.81 4.67-1.01 1.68-2.04 3.35-3.07 5.03-3.22 5.23-5.98 10.6-8.68 16.1-1.33 2.6-2.78 5.01-4.36 7.47-4.31 6.98-7.16 14.7-10.2 22.3-1.26 3.07-2.58 6.11-3.89 9.16-9.94 23.8-17.4 47.9-23 73-1.85-0.21-1.85-0.21-4-1-1.27-1.99-1.27-1.99-2.37-4.65-0.42-1-0.84-2-1.28-3.02-0.44-1.1-0.89-2.2-1.35-3.33-0.48-1.15-0.96-2.3-1.46-3.48-1.55-3.71-3.08-7.43-4.6-11.2-0.78-1.9-1.56-3.79-2.34-5.69-0.74-1.8-1.48-3.61-2.22-5.41-1.49-3.53-3.1-6.99-4.81-10.4-0.71-2.33-0.37-3.58 0.43-5.85 0.78-1.45 1.63-2.86 2.5-4.25 6.63-10.8 12.9-21.7 17.6-33.5 0.65-1.63 1.31-3.25 1.98-4.87 6.77-16.4 11.8-32.9 16.1-50.1 0.68-2.74 1.39-5.46 2.11-8.18 2.19-8.3 3.54-16.5 4.69-25 0.17-1.26 0.34-2.51 0.52-3.8 0.69-5.1 1.39-10.2 2.07-15.3 0.17-1.24 0.34-2.48 0.51-3.75 0.22-1.66 0.22-1.66 0.45-3.36 0.45-2.78 0.45-2.78 1.45-5.78 0.14-1.38 0.22-2.76 0.28-4.14 0.04-0.8 0.08-1.61 0.12-2.44 0.05-1.26 0.05-1.26 0.1-2.55 0.07-1.65 0.14-3.29 0.22-4.94 0.03-0.73 0.06-1.46 0.09-2.21 0.11-1.53 0.24-3.06 0.43-4.58 0.87-6.68 0.81-13.2 0.68-20-0.03-1.2-0.05-2.41-0.07-3.66-0.05-2.54-0.09-5.09-0.15-7.63-0.07-3.88-0.14-7.76-0.21-11.6-0.04-2.49-0.09-4.97-0.14-7.45-0.03-1.73-0.03-1.73-0.06-3.49-0.27-12.9-2.3-25.5-4.35-38.3-0.28-1.74-0.28-1.74-0.57-3.52-0.45-2.85-0.91-5.69-1.37-8.54h-2c-1.45 4.04-2.4 7.87-3 12.1-0.17 1.14-0.33 2.28-0.51 3.46-0.24 1.69-0.24 1.69-0.49 3.42-1.15 7.88-2.81 15.5-4.79 23.2-1.77 6.91-3.39 13.9-5.01 20.8-1.52 6.4-3.25 12.7-5.2 19-0.44 1.49-0.89 2.99-1.33 4.49-3.76 12.4-8.16 24.4-12.7 36.5-0.3 0.78-0.6 1.57-0.9 2.38-3.39 8.96-6.9 17.8-10.7 26.6-1.29 3-2.47 6.02-3.61 9.08-3.26 8.61-6.97 17-10.6 25.5-0.94 2.18-1.88 4.36-2.81 6.54-0.97 2.28-1.94 4.55-2.92 6.82-0.91 2.12-1.8 4.24-2.67 6.37-0.43 1.01-0.86 2.01-1.29 3.05-0.37 0.88-0.73 1.77-1.11 2.68-1.27 2.01-1.27 2.01-3.23 2.99-2.04 0.02-2.04 0.02-3.5-1.1-2.03-2.48-3.01-4.99-4.21-7.96-0.5-1.21-0.99-2.43-1.5-3.69-0.53-1.3-1.05-2.61-1.58-3.92-1.07-2.65-2.15-5.29-3.23-7.94-0.27-0.64-0.53-1.29-0.8-1.96-2-4.9-4.07-9.76-6.22-14.6-2.13-4.81-4.21-9.61-6.07-14.5-0.92-2.36-0.92-2.36-2.2-4.77-3.04-6.24-3.04-6.24-2.16-9.85 0.35-0.78 0.7-1.56 1.06-2.36 0.57-1.31 0.57-1.31 1.15-2.64 0.4-0.88 0.8-1.76 1.22-2.67 0.37-0.83 0.74-1.66 1.12-2.51 1.48-3.31 3-6.61 4.53-9.9 4.44-9.75 7.81-19.6 10.4-30 0.26-1.04 0.51-2.07 0.78-3.14 2.44-10.1 4.47-20.2 6.22-30.5 0.15-0.84 0.29-1.67 0.44-2.53 1.79-10.4 2.93-20.6 3.27-31.2 0.2-6.09 0.2-6.09 1.29-8.27 0.1-1.83 0.13-3.67 0.13-5.5v-2.97c0.04-2.53 0.04-2.53-1.13-4.53-0.13-2.32-0.2-4.64-0.25-6.96-0.03-1.44-0.06-2.88-0.09-4.31-0.05-2.26-0.1-4.51-0.14-6.76-0.16-8.61-0.58-16.9-2.11-25.4-0.41-2.58-0.41-2.58-0.35-6.08-0.08-4.51-1.15-8.54-2.22-12.9-0.82-3.52-1.43-7.03-2.03-10.6-1.41-8.07-3.57-15.9-5.75-23.8-0.33-1.22-0.67-2.45-1.01-3.72-2.66-9.49-5.54-18.7-10-27.5v-2l-2 1c0.33 1.09 0.65 2.19 0.99 3.32 1.28 5.17 1.31 10.2 1.26 15.5-0.01 1.5-0.01 1.5-0.01 3.03-0.13 10.6-1.21 21.1-2.75 31.6-0.36 2.62-0.68 5.23-0.95 7.87-0.12 1.13-0.12 1.13-0.24 2.28-0.16 1.54-0.31 3.08-0.46 4.62-0.54 5.08-1.55 9.81-2.84 14.8-0.19 1.41-0.34 2.83-0.44 4.25-0.45 4.69-1.61 9.1-2.81 13.6-0.72 2.99-1.23 5.93-1.69 8.97-0.97 6.12-2.6 11.9-4.38 17.8-0.81 2.72-1.6 5.43-2.39 8.15-1.76 6.05-3.51 12.1-5.29 18.1-0.26 0.88-0.51 1.75-0.78 2.66-1.57 5.34-3.32 10.6-5.22 15.8-1.99 5.52-3.81 11-5.16 16.7-1.12 2.38-2.45 2.85-4.84 3.79-4.23-4.84-6.75-9.47-8.87-15.5-2.2-6.2-4.73-12-7.74-17.8-3.32-6.48-6.49-13-9.64-19.6-0.51-1.05-1.01-2.11-1.54-3.2-0.97-2.02-1.93-4.04-2.89-6.07-0.83-1.75-1.67-3.5-2.53-5.23-4-8.32-4.5-15-1.6-23.7 4.27-14.1 6.5-28.6 8.06-43.2 0.08-0.72 0.16-1.44 0.24-2.19 1.48-15.5 0.22-31-1.18-46.4-0.13-1.48-0.13-1.48-0.26-2.99-1.29-14.4-3.09-28.5-6.49-42.6-0.77-3.35-1.4-6.73-2.01-10.1-0.61-2.57-1.54-4.87-2.55-7.31-0.56-1.65-1.1-3.3-1.62-4.95-0.3-0.93-0.59-1.86-0.9-2.82-0.3-0.97-0.6-1.93-0.92-2.92-0.45-1.41-0.45-1.41-0.9-2.86-1.45-4.56-2.86-9.12-4.23-13.7-1.21-4.06-2.52-8.07-3.93-12.1-0.6-1.72-0.6-1.72-1.22-3.48-2.04-5.52-2.04-5.52-6.28-9.2 0.17 0.79 0.35 1.58 0.52 2.4 0.6 4.46 0.38 8.68 0.11 13.2-0.08 1.33-0.08 1.33-0.16 2.7-0.1 1.77-0.21 3.55-0.32 5.32-0.13 2.03-0.23 4.06-0.34 6.09-0.42 7.06-1.59 13.8-3.06 20.7-1.21 5.84-2.15 11.7-3.06 17.6-1.5 9.68-3.33 19.2-5.82 28.6-0.49 1.9-0.95 3.8-1.31 5.73-0.86 4.05-2.15 7.94-3.43 11.9-0.26 0.82-0.52 1.65-0.78 2.51-0.26 0.78-0.51 1.57-0.78 2.38-0.23 0.71-0.46 1.43-0.69 2.17-0.88 1.69-0.88 1.69-3.88 2.69-3.86-1.87-5.06-4.91-6.83-8.66-4.09-8.19-9.71-15.6-14.9-23.2-3.13-4.53-6.22-9.09-9.26-13.7-3.95-5.96-7.98-11.9-12-17.7-2.66-3.85-5.27-7.73-7.83-11.6-4.92-7.41-10.2-14.6-15.4-21.8-1.71-2.35-3.4-4.71-5.09-7.07-6.39-8.9-12.9-17.7-19.6-26.3-1.25-1.61-2.5-3.21-3.75-4.82-0.81-1.04-0.81-1.04-1.64-2.1-2.58-3.34-5.1-6.71-7.61-10.1 0 4.08 1.62 7.3 3.19 11 0.48 1.15 0.48 1.15 0.97 2.32 2.94 7 6.06 13.9 9.31 20.8 3.08 6.57 5.83 13.2 8.38 20 0.95 2.4 1.96 4.64 3.15 6.92 1.63 3.11 2.9 6.27 4.13 9.56 2.41 6.43 5.12 12.7 7.87 19 0.44 1 0.88 2 1.33 3.03 0.84 1.93 1.69 3.87 2.53 5.8 1.44 3.28 2.86 6.56 4.27 9.86 0.37 0.87 0.74 1.74 1.13 2.64 0.74 2.11 0.74 2.11 0.74 5.11-5.17 0.19-9.61-0.19-14.6-1.47-5.52-1.24-11-1.68-16.7-1.97-26.7-1.5-26.7-1.5-37.1-4.56-2.8-0.77-5.04-1.19-7.88-1.44-4.45-0.42-8.53-1.56-12.8-2.8-4.91-1.28-9.91-2.02-14.9-2.76l-1 2c0.53 0.24 1.06 0.48 1.6 0.72 2.46 1.31 4.72 2.82 7.02 4.4 8.5 5.85 17.4 11 26.3 16 3.44 1.93 6.84 3.93 10.2 5.98 4.01 2.42 8.06 4.63 12.3 6.69 1 0.5 1 0.5 2.03 1 2.17 1.07 4.35 2.13 6.53 3.19 0.76 0.37 1.52 0.74 2.31 1.12 15.3 7.44 30.2 14.6 47 18 1.23 0.27 2.45 0.55 3.71 0.83 1.07 0.22 2.15 0.44 3.25 0.67 3.81 1.83 4.93 4.51 6.56 8.2 0.33 0.7 0.66 1.4 1 2.12 1.09 2.33 2.14 4.67 3.19 7.01 0.78 1.69 1.56 3.39 2.34 5.08 6.45 14.1 12.3 28.4 17.7 42.9-9.52-1.41-18.3-5.03-27.1-8.78-7.58-3.16-15.4-5.71-23.2-8.29-5.62-1.89-11.1-4.05-16.5-6.37-4.92-2.07-9.87-3.82-15-5.38-2.85-1.03-5.51-2.19-8.25-3.47-7.86-3.62-16-6.52-24.1-9.52-8.16-3.05-16.1-6.44-23.9-10.2-0.99-0.47-1.99-0.94-3.01-1.43-2.9-1.37-5.79-2.75-8.68-4.14-0.95-0.45-1.91-0.91-2.89-1.38-6.17-2.95-12.3-5.97-18.4-9.05 3.62 5.1 7.08 9.13 12 13 1.69 1.64 3.36 3.31 5 5 0.6 0.55 1.2 1.11 1.81 1.68 1.19 1.32 1.19 1.32 1.19 3.32 0.58 0.26 1.16 0.52 1.76 0.79 2.35 1.27 4.08 2.67 6.05 4.46 3.25 2.91 6.56 5.73 9.94 8.49 1.25 1.26 1.25 1.26 1.25 3.26 0.84 0.35 0.84 0.35 1.7 0.72 2.82 1.56 4.84 3.49 7.18 5.71 5.9 5.47 12.1 10.4 18.5 15.3 2.25 1.76 4.46 3.57 6.67 5.38 4.74 3.8 9.7 7.23 14.7 10.6 3.01 2.07 5.97 4.19 8.92 6.35 1.35 0.99 1.35 0.99 2.73 1.99 1.6 1.17 3.19 2.34 4.78 3.52 12.1 8.77 25.4 16.1 38.4 23.4 3.54 1.96 6.98 4.02 10.4 6.2 5.97 3.64 12.5 5.76 19.1 8.11 3.73 1.37 7.39 2.93 11 4.51 2.92 1.25 2.92 1.25 6.12 2.27 1.06 0.37 2.12 0.73 3.21 1.11 1.42 0.46 1.42 0.46 2.87 0.92 4.25 3 5.66 7.22 7.69 11.9 0.43 0.95 0.87 1.91 1.31 2.9 1.38 3.06 2.72 6.14 4.07 9.22 0.71 1.64 0.71 1.64 1.45 3.31 0.95 2.18 1.9 4.37 2.85 6.55 1.16 2.65 2.32 5.3 3.49 7.95 2.63 6.02 5.25 12 7.83 18.1 0.41 0.95 0.83 1.91 1.25 2.9 2.45 5.67 4.86 11.4 7.22 17.1 0.44 1.06 0.88 2.11 1.33 3.2 0.87 2.1 1.73 4.21 2.6 6.31 2.09 5.05 4.26 9.98 6.76 14.8 1.09 2.18 1.98 4.41 2.84 6.69 1.19 3.06 2.46 5.97 4 8.87 1.63 3.16 2.75 6.3 3.81 9.69 2.17 6.76 5.19 13 8.24 19.4 1.67 3.55 3.29 7.12 4.89 10.7 0.31 0.68 0.61 1.35 0.93 2.04 1.5 3.4 2.13 5.48 2.13 9.28-5.52-0.55-10.4-1.63-15.7-3.44-6.14-2.03-12.1-3.26-18.5-4.11-3.18-0.51-5.87-1.44-8.83-2.67-7.39-2.9-15.4-4.4-23.1-6.3-4.7-1.17-9.36-2.41-14-3.71-3.56-0.95-7.14-1.83-10.7-2.71-5.06-1.25-10.1-2.59-15.1-4.06-6.22-1.82-12.5-3.24-18.8-4.52-4.74-0.99-8.85-2.51-13.3-4.48-6.78-2.5-13.7-4.29-20.7-6.02-5.26-1.34-10.3-3.03-15.4-4.93-5.07-1.85-10.2-3.43-15.4-5.05-9.62-3.03-19.1-6.22-28.5-10-3.65-1.47-7.32-2.92-11-4.32-0.91-0.34-1.81-0.69-2.75-1.05-2.26-0.91-2.26-0.91-4.25 0.37 9.4 7.42 19.1 14.3 29 21 0.6 0.4 1.19 0.8 1.8 1.21 11 7.45 22.2 14.7 33.4 22 1.77 1.15 3.54 2.31 5.31 3.46 12.3 8.04 25 15.1 38 22 2.05 1.1 4.07 2.23 6.09 3.4 27.8 15.9 57.5 30.2 87.9 40.4 3.88 1.31 7.63 2.82 11.4 4.41 12 4.92 24.6 8.38 37.1 12.1 0.93 0.28 1.87 0.57 2.83 0.86 0.84 0.26 1.69 0.52 2.56 0.78 0.78 0.25 1.56 0.49 2.37 0.74 2.22 0.66 2.22 0.66 4.48 0.93 3 0.45 5.2 0.93 7.05 3.43 1.14 2.34 2.04 4.68 2.9 7.13 0.33 0.87 0.66 1.73 1.01 2.63 0.66 1.72 1.31 3.45 1.94 5.18 1.04 2.81 2.19 5.56 3.36 8.32 0.38 0.91 0.76 1.83 1.16 2.77 7.57 18.6 7.57 18.6 16.2 36.7 1.19 2.5 1.19 2.5 1.19 5.5-7.02-0.36-13.5-1.28-20.3-3.12-6.04-1.43-12.2-2.37-18.3-3.35-5.54-0.91-10.8-2.15-16.1-3.84-3.37-1.01-6.73-1.6-10.2-2.19-5.68-1.01-11.2-2.23-16.8-3.69-4.26-1.04-8.54-1.93-12.8-2.81-9.04-1.88-18-4.01-26.9-6.5-4.08-1.13-8.17-2.04-12.3-2.88-6.68-1.39-13.1-3.34-19.6-5.43-3.98-1.27-7.97-2.38-12-3.45-11-2.96-21.9-6.27-32.8-9.74-1.22-0.39-2.45-0.78-3.71-1.19-14.4-4.67-28.4-10.3-42.2-16.3-0.76-0.33-1.51-0.65-2.29-0.99-0.67-0.29-1.33-0.58-2.02-0.88-1.95-0.79-1.95-0.79-4.8-0.62v2c0.58 0.27 1.16 0.53 1.75 0.81 2.31 1.22 4.27 2.49 6.25 4.19v2c0.59 0.28 1.18 0.56 1.79 0.85 2 1.04 3.77 2.14 5.61 3.43 0.64 0.45 1.27 0.89 1.93 1.35 0.68 0.47 1.35 0.94 2.05 1.43 5.27 3.66 10.6 7.24 16 10.7 3.87 2.46 7.69 4.96 11.4 7.62 20.2 14.3 41.7 26.6 63.5 38.2 2.26 1.21 4.5 2.43 6.73 3.66 8.29 4.56 16.8 8.51 25.4 12.4 4.35 1.93 8.42 3.96 12.5 6.41 2.11 0.82 4.24 1.58 6.38 2.31 4.89 1.66 9.66 3.51 14.4 5.47 7.98 3.24 16.1 5.95 24.3 8.58 2.38 0.76 4.76 1.54 7.14 2.31 13.7 4.45 27.6 8.15 41.6 11.4 1.11 0.26 2.22 0.52 3.37 0.79 7.81 1.79 15.6 3.19 23.6 4.21 4.95 1.45 6.34 4.46 8.82 8.77 4.79 9.56 6.63 16.7 6.39 27.4-0.09 4.08 0.24 7.8 0.98 11.8 0.13 1.58 0.22 3.16 0.25 4.75 0.03 0.76 0.05 1.51 0.08 2.29-0.16 0.97-0.16 0.97-0.33 1.96-3.69 2.46-5.61 2.23-10 2.18-1.24 0-2.47-0.01-3.75-0.01-3.25-0.17-3.25-0.17-6.25-1.17-2.92-0.3-5.83-0.54-8.76-0.76-0.87-0.06-1.73-0.13-2.62-0.19-1.83-0.14-3.66-0.28-5.5-0.41-2.78-0.2-5.56-0.41-8.34-0.63-1.79-0.13-3.57-0.26-5.35-0.39-0.83-0.06-1.65-0.13-2.5-0.19-3.77-0.27-7.5-0.46-11.3-0.44-3.8 0.01-7.33-0.42-11.1-0.99-5.61-0.8-10.9-1.1-16.6-1l-2-1c-2.67-0.21-5.32-0.38-8-0.5-7.73-0.37-7.73-0.37-10-1.5-1.33-0.13-2.66-0.2-4-0.25-0.8-0.03-1.61-0.06-2.44-0.1-1.67-0.06-3.35-0.12-5.02-0.17-5.16-0.22-9.96-0.91-15-1.99-5.2-1.01-10.5-1.29-15.8-1.7-5.07-0.44-9.9-1.14-14.8-2.35-2.14-0.53-2.14-0.53-5.24-0.88-3.3-0.5-6.34-1.25-9.56-2.13-5.24-1.35-9.74-1.7-15.1-1.43 8.1 5.5 16.6 10 25.3 14.5 2.79 1.44 5.55 2.91 8.27 4.46 17 9.6 36 16.7 54.4 23.2 1.57 0.56 3.13 1.13 4.69 1.69 13 4.71 26 8.85 39.4 12.1 1.09 0.26 1.09 0.26 2.21 0.53 3.56 0.84 7.12 1.68 10.7 2.5 3.39 0.79 6.76 1.64 10.1 2.52 14.7 3.8 29.4 6.24 44.6 6.51 1.17 0.04 2.34 0.08 3.54 0.12 1.57 0.03 1.57 0.03 3.17 0.05 2.64 0.77 2.64 0.77 4.16 3.4 1.44 3.28 2.68 6.55 3.82 9.95 0.42 1.24 0.85 2.48 1.28 3.76 0.44 1.31 0.88 2.61 1.32 3.91 5.02 15.3 5.02 15.3 11.6 29.9 1.5 2.84 2.69 5.57 3.8 8.6 1.73 4.73 4.02 9.1 6.39 13.5 0.44 0.82 0.88 1.65 1.33 2.51 3.07 5.75 6.27 11.4 9.64 17 1.28 2.25 1.28 2.25 2.28 5.25h2c0.9 1.76 0.9 1.76 1.81 3.56 6.33 11.4 15 23.6 24.4 32.6 1.78 1.86 1.78 1.86 1.78 3.86h2c1.55 1.83 1.55 1.83 3.31 4.25 2.64 3.49 5.19 6.1 8.69 8.75 0.86 1.13 0.86 1.13 1.73 2.29 2.66 3.17 5.57 5.4 8.9 7.83 6.11 4.49 6.11 4.49 8.37 7.88v3c-10.5-1.42-20.8-3.62-31-6.25-3.3-0.82-6.62-1.55-9.96-2.25-19.6-4.16-19.6-4.16-28.9-7.42-2.9-1-5.8-1.97-8.71-2.93-6.37-2.12-12.7-4.37-19-6.65-1.57-0.57-1.57-0.57-3.17-1.15-19.8-7.13-39-14.6-57.7-24.1-4.09-2.06-8.22-4.06-12.4-6-1.01-0.48-2.02-0.96-3.07-1.45-1.98-0.93-3.97-1.86-5.96-2.78-5.4-2.54-10.3-5.33-15.2-8.72-2.21-1.51-4.48-2.78-6.86-4-8.23-4.41-16.1-9.38-24.1-14.3-0.72-0.45-1.44-0.89-2.18-1.35-1.98-1.23-3.97-2.47-5.94-3.72-0.6-0.37-1.2-0.73-1.82-1.12-1.39-0.88-2.73-1.84-4.06-2.81v-2c-1.98-0.66-3.96-1.32-6-2v-2c-0.69-0.23-1.38-0.46-2.09-0.69-3.58-1.61-6.44-3.87-9.47-6.31-3.35-2.68-6.55-5.15-10.4-7-1.67-1.67-3.33-3.34-5-5-1.75-1.32-3.53-2.57-5.35-3.79-1.73-1.27-3.13-2.7-4.65-4.21l-3-2v-2c-0.73-0.25-1.47-0.49-2.23-0.74-3.1-1.42-4.75-2.98-7.08-5.45-4.74-4.9-9.75-9.34-15-13.7-0.73-0.63-1.46-1.25-2.22-1.9-0.67-0.56-1.34-1.12-2.03-1.7-1.47-1.48-1.47-1.48-1.47-3.48h-2c-4.77-4.31-4.77-4.31-6-8-0.99-0.33-1.98-0.66-3-1-1.51-1.53-1.51-1.53-3.12-3.5-2.73-3.22-5.56-6.23-8.57-9.19-2.99-2.96-5.89-5.85-8.31-9.31v-2c-0.99-0.33-1.98-0.66-3-1-1.83-2.01-1.83-2.01-3.81-4.57-0.71-0.9-1.42-1.81-2.15-2.75-1.68-2.21-3.33-4.44-4.98-6.68-2.32-3.15-4.85-6-7.5-8.88-4.34-4.76-7.97-9.78-11.6-15.1-1.41-2.07-2.83-4.13-4.25-6.19-0.37-0.54-0.75-1.09-1.13-1.65-2.5-3.61-5.08-7.14-7.71-10.7-4.54-6.06-8.69-12.2-12.5-18.8-2.34-4-4.78-7.88-7.34-11.7-8.3-12.5-15.4-25.7-22.1-39.1-0.98-1.94-2-3.84-3.04-5.75-5.57-10.2-10.5-20.6-15.3-31.2-0.3-0.66-0.6-1.33-0.91-2.01-3.03-6.71-6-13.4-8.69-20.3-0.78-2-1.58-3.99-2.38-5.97-9.88-24.4-18.7-49.2-25.6-74.7-0.19-0.71-0.39-1.41-0.59-2.13-5.91-21.5-11.3-43-15.4-64.9-0.17-0.89-0.34-1.78-0.52-2.7-1.41-7.41-2.61-14.8-3.15-22.3-0.38-3.53-1.05-6.95-1.74-10.4-2.64-13.8-4.19-27.6-5.59-41.6-0.08-0.78-0.16-1.56-0.24-2.37-5.39-54.8-5.29-112 0.24-167 0.16-1.6 0.31-3.2 0.47-4.81 1.76-17.8 4.01-35.4 6.53-53.1 0.7-4.85 1.35-9.7 1.97-14.6 2.16-17 4.84-33.7 8.03-50.5 0.13-0.69 0.26-1.38 0.4-2.09 2.15-11.3 4.35-22.6 6.6-33.9 0.14-0.71 0.28-1.42 0.43-2.15 0.93-4.66 1.87-9.32 2.82-14 0.23-1.16 0.47-2.32 0.71-3.51 1.19-5.78 2.61-11.4 4.37-17 1.11-3.88 1.71-7.82 2.36-11.8 1.78-10.4 4.07-20.7 6.44-30.9 0.26-1.15 0.26-1.15 0.53-2.32 1.1-4.77 2.21-9.54 3.34-14.3 0.16-0.74 0.32-1.47 0.49-2.22 0.44-1.94 0.97-3.87 1.51-5.78 3.99-2 8.22-1.21 12.4-0.12z" fill="#000102"/>
<path transform="translate(1239,721)" d="m0 0c6.79 3.18 11.5 8.01 16 14 0.34 1.33 0.67 2.67 1 4 0.99 0.33 1.98 0.66 3 1 1.61 1.78 1.61 1.78 3.19 3.94 0.53 0.71 1.06 1.42 1.6 2.15 1.21 1.91 1.21 1.91 1.21 3.91 0.64 0.25 1.28 0.5 1.94 0.75 2.06 1.25 2.06 1.25 2.62 3.31 0.15 0.64 0.29 1.28 0.44 1.94 0.99 0.33 1.98 0.66 3 1 1.47 2.14 2.78 4.25 4.06 6.5 0.39 0.66 0.78 1.33 1.18 2.01 0.83 1.43 1.65 2.85 2.48 4.28 1.27 2.2 2.57 4.38 3.88 6.57 4.82 8.06 9.32 16.2 13.4 24.6 0.3 0.57 0.59 1.14 0.9 1.72 2.93 5.67 5.24 11.5 7.48 17.5 0.39 1.05 0.78 2.09 1.18 3.18 3.42 9.3 6.28 18.7 8.82 28.3 0.58 2.22 1.19 4.44 1.8 6.66 2.18 8.1 3.51 16 4.33 24.4 0.44 3.02 1.08 4.71 2.49 7.33 0.42 2.34 0.58 4.65 0.76 7.02 0.15 1.87 0.31 3.73 0.48 5.6 0.84 9.78 1.13 19.6 1.37 29.4 0.08 2.92 0.17 5.84 0.26 8.75 0.25 9.36 0.24 18.2-1.43 27.5-0.41 2.56-0.48 4.84-0.38 7.43 0.1 3.4-0.47 6.11-1.45 9.37-1.61 5.71-2.6 11.4-3.49 17.2-2.4 15.1-5.38 30.1-10.1 44.6-0.84 2.6-1.64 5.2-2.42 7.82-0.53 1.74-1.05 3.49-1.57 5.23-0.23 0.78-0.46 1.55-0.7 2.35-6.78 22.3-17.1 43.2-28.3 63.6-0.37 0.66-0.73 1.33-1.11 2.01-3.5 6.33-7.11 12.6-11.2 18.5-1.37 2-2.71 4.01-4.04 6.04-4.63 7.04-9.36 13.9-14.6 20.4-1.15 1.48-2.29 2.96-3.44 4.44-3.13 4.03-6.31 8.03-9.52 12-1.38 1.73-2.76 3.47-4.11 5.23-3.69 4.73-7.25 8.59-11.9 12.3-0.74 0.93-1.49 1.86-2.25 2.81-0.58 0.72-1.15 1.45-1.75 2.19h-2c-0.27 0.6-0.54 1.19-0.82 1.8-1.17 2.17-2.32 3.6-4.05 5.34-0.57 0.57-1.14 1.14-1.72 1.73-0.61 0.6-1.22 1.2-1.85 1.82-0.94 0.93-0.94 0.93-1.9 1.88-8.87 8.69-18.7 16.1-28.7 23.4-0.92 0.68-1.84 1.36-2.78 2.06-9.75 7.17-19.8 13.8-30.2 20.1-1.82 1.11-3.64 2.23-5.44 3.38-7.75 4.89-16.1 8.61-24.4 12.4-1.89 0.88-3.77 1.77-5.64 2.67-13 6.19-26.5 12-40.6 15.4-1.88 0.52-3.75 1.04-5.62 1.56-6.24 1.69-12.4 3.3-18.8 3.88-3.29 0.31-6.12 1-9.25 2.06-5.36 1.73-10.6 2.03-16.2 2.29-2.92 0.1-2.92 0.1-4.97 0.72-2.51 0.58-4.77 0.6-7.35 0.58-1.05-0.01-2.09-0.02-3.16-0.03-1.12-0.01-2.24-0.03-3.39-0.04-1.16-0.01-2.32-0.03-3.51-0.04-2.44-0.04-4.89-0.07-7.34-0.11-3.73-0.06-7.47-0.09-11.2-0.11-2.38-0.04-4.75-0.08-7.13-0.12-1.12 0-2.23 0-3.38-0.01-6.17-0.13-9.98-0.47-14.7-4.63-18.9-23-22.8-59.5-20.1-87.9 3.97-34.7 22.9-65 49.7-86.9 10.6-8.18 22.8-14.5 34.4-21.2 17.4-10 17.4-10 33.1-22.3 1.17-1.05 2.37-2.07 3.59-3.06 8.69-6.95 15.2-16.4 21.3-25.6 0.51-0.73 1.03-1.46 1.55-2.21 5.23-7.93 7.83-16.8 10.4-25.8 0.21-0.7 0.43-1.4 0.65-2.13 8.86-29.7 2.31-61.7-3.32-91.4-3.54-18.8-4.83-39.9 0.67-58.5 0.34-1.15 0.68-2.3 1.03-3.48 4.92-15 12.3-27 23-38.5 1.09-1.18 1.09-1.18 2.2-2.38 4.26-4.42 8.79-8.09 13.8-11.6 1.03-0.77 2.05-1.53 3.11-2.32 12.4-9.1 26.2-15.8 39.9-22.7 19.3-9.82 38.3-21.8 53-38 0.66-0.72 1.33-1.44 2.01-2.18 4.36-5.08 7.66-10.5 10.8-16.4 0.56-1.05 0.56-1.05 1.13-2.11 2.57-4.97 4.42-9.99 6.06-15.3 1.89-5.89 1.89-5.89 3-7z" fill="#000102"/>
<path transform="translate(1145 673)" d="m0 0c3.08 1.49 6.32 1.86 9.67 2.4 17.2 3.06 17.2 3.06 21.7 8.21 2.17 4.28 2.3 7.45 2.17 12.2-0.03 1.21-0.03 1.21-0.05 2.43-0.51 15.7-8.46 28.6-19.7 39.3-12.1 10.8-26.6 17.9-41 25.1-16.9 8.5-33.6 17.6-47.7 30.4-1.38 1.17-2.75 2.34-4.13 3.5-9.37 8.35-17 17-23.9 27.5-0.42 0.64-0.84 1.27-1.27 1.92-18.1 27.9-24.8 59-21.9 91.8 0.08 0.88 0.16 1.75 0.24 2.66 0.56 5.66 1.58 11.1 2.89 16.6 2.41 11.3 4.56 22.6 6 34 0.11 0.77 0.22 1.54 0.34 2.33 2.74 20.3-0.77 44.5-13.4 61.1-0.65 0.84-1.3 1.67-1.97 2.53-0.8 1.09-1.59 2.19-2.38 3.28-4.58 6.3-4.58 6.3-6.62 8.72h-2l-1 3c-1.37 1.26-1.37 1.26-3.15 2.5-1 0.7-1 0.7-2.02 1.42-0.73 0.5-1.45 1.01-2.21 1.52-0.75 0.53-1.5 1.05-2.28 1.59-10.7 7.35-21.6 14.3-32.8 20.7-9.51 5.47-18 12.3-26.5 19.2-0.51 0.41-1.02 0.82-1.54 1.23-8.23 6.58-15 13.4-21.5 21.8-0.7 0.91-1.4 1.82-2.11 2.75-18.9 25.3-29.6 51.9-32.2 83.4-0.08 0.92-0.16 1.83-0.24 2.77-0.07 0.89-0.14 1.77-0.22 2.69-0.2 2.01-0.53 4.02-0.89 6.01-0.46 4.46 0.22 8.4 1.02 12.8 0.29 1.61 0.56 3.22 0.84 4.83 0.14 0.8 0.27 1.59 0.41 2.41 0.49 3.1 0.83 6.21 1.16 9.33 1.66 15.3 7.2 29.6 12.2 44-1.79 0.61-1.79 0.61-4 1-2.61-1.36-4.94-2.75-7.38-4.37-0.7-0.46-1.4-0.91-2.12-1.38-1.45-0.94-2.91-1.89-4.35-2.84-2.04-1.33-4.08-2.64-6.14-3.94-11.2-7.1-11.2-7.1-15-10.5v-2c-0.68-0.2-1.36-0.41-2.06-0.62-3.94-1.84-6.73-4.48-9.94-7.38-1.37-1.18-2.75-2.37-4.13-3.56-3.08-2.7-6.01-5.5-8.87-8.44-0.53-0.52-1.07-1.04-1.61-1.58-9.32-9.15-17.8-19.2-24.9-30.2-1.53-2.33-3.15-4.57-4.79-6.82-13.9-19.9-24.8-43.2-32-66.2-0.64-2.05-1.32-4.08-2.01-6.11-12-36.6-21-92-8.68-129 0.11-2.18 0.18-4.37 0.25-6.56 1.56-31 12.2-62.4 23.8-91 0.92-2.32 1.81-4.64 2.69-6.97 11.8-31 29.6-60.1 49.3-86.7 1.48-2.04 2.92-4.08 4.33-6.16 0.39-0.58 0.79-1.16 1.19-1.75 1.11-1.64 2.21-3.27 3.31-4.91 2.18-2.95 2.18-2.95 4.48-5.23 2.87-2.89 5.47-5.95 8.07-9.07 6.23-7.37 12.9-14.2 19.8-21 1.95-1.94 3.89-3.89 5.83-5.85 7.05-7.05 14.2-13.6 22-19.8 1.17-0.99 2.34-1.99 3.5-3 5.98-5.21 12-9.88 18.7-14.2 2.5-1.62 4.9-3.32 7.3-5.07 19.1-13.4 39.9-24.2 61.5-32.8 1.16-0.46 1.16-0.46 2.33-0.93 16.1-6.33 32.8-11.9 50-13.6 2.64-0.42 4.34-1.19 6.68-2.43h6c1.02-0.3 2.03-0.61 3.08-0.93 21.9-6.52 68.9-8.88 89.8 1.91z" fill="#000102"/>
<path transform="translate(1265,291)" d="m0 0c0.19 5.88-0.29 11-1.56 16.7-0.53 2.38-0.53 2.38-0.44 5.27 0 2.77-0.35 4.94-0.94 7.62-1.02 4.74-1.44 9.39-1.72 14.2-0.28 2.58-0.71 4.91-1.31 7.42-1.28 5.53-1.75 11.1-2.24 16.7-0.37 3.85-0.84 7.53-1.82 11.3-0.81 3.15-1.27 5.9-1.47 9.13-0.87 10.8-3.79 21.2-6.5 31.6-0.21 0.83-0.42 1.65-0.64 2.5-3.72 14.4-8.1 28.6-13.4 42.5-0.3 0.79-0.59 1.58-0.9 2.39-6.99 18.2-18.6 34-30.1 49.6-0.8 1.15-0.8 1.15-1.61 2.32-0.46 0.55-0.92 1.11-1.39 1.68h-2c-0.21 0.54-0.41 1.07-0.62 1.62-1.91 3.3-4.43 5.97-7.38 8.38h-2l-1 3c-1.86 1.64-3.7 3.14-5.69 4.62-0.57 0.44-1.15 0.88-1.75 1.33-9.28 6.92-19 13.3-29.6 18-0.92 0.42-1.84 0.84-2.79 1.27-11 4.8-22.4 7.89-34.2 9.73-1.03 0.19-2.06 0.37-3.12 0.56-6.92 1.15-13.7 1.64-20.7 1.69-0.78 0.01-1.55 0.02-2.35 0.03-4.79-0.03-9.12-0.65-13.8-1.79-2.77-0.66-5.56-1.01-8.38-1.37-11-1.65-20.2-5.5-29.7-11.1 1.39-4.27 3.34-6.68 6.54-9.8 0.91-0.9 1.82-1.79 2.76-2.71 0.96-0.94 1.92-1.87 2.89-2.8 5.58-5.46 11.1-10.9 16.2-16.8 2.89-3.28 6.03-6.31 9.15-9.37 5.05-5 9.98-10 14.5-15.5 3.18-3.86 6.46-7.46 10-11 1.17-1.33 2.34-2.66 3.5-4 2.72-3.13 5.53-6.1 8.5-9 3.85-3.76 7.64-7.52 11.1-11.6 3.99-4.65 8.36-8.91 12.7-13.2 3.45-3.4 6.68-6.88 9.75-10.6 1.48-1.65 3.05-2.99 4.78-4.37 3.78-3.12 6.58-6.81 9.58-10.7 2.51-3.1 5.26-5.82 8.11-8.59 2.52-2.51 4.83-5.17 7.15-7.86 1.9-2.21 3.84-4.39 5.78-6.57 2.46-2.76 4.89-5.52 7.31-8.31 2.52-2.89 5.09-5.71 7.7-8.52 3.95-4.27 7.87-8.58 11.6-13 0.64-0.75 1.27-1.5 1.92-2.27 1.73-2.78 2.12-5.11 2.46-8.35-2.6-0.44-4.39-0.37-6.67 1.01-1.91 1.47-3.75 2.99-5.58 4.55-1.33 1.1-2.66 2.2-4 3.3-0.64 0.54-1.28 1.08-1.94 1.63-2.35 1.96-4.72 3.87-7.12 5.76-0.68 0.54-1.36 1.08-2.05 1.64-1.64 1.11-1.64 1.11-3.64 1.11l-1 3c-2.01 1.44-2.01 1.44-4.69 3-7.23 4.45-13.7 9.67-20.3 15-0.67 0.54-1.34 1.08-2.02 1.64-3.45 2.78-6.88 5.58-10.3 8.38-8.26 6.73-16.6 13.3-25.1 19.8-6.94 5.39-13.8 10.9-20.6 16.4-0.71 0.58-1.43 1.16-2.17 1.76-1.43 1.17-2.85 2.33-4.28 3.49-9.18 7.48-9.18 7.48-11.5 7.48l-1 3c-2.01 1.62-2.01 1.62-4.69 3.44-5.41 3.81-10.4 7.96-15.4 12.4-3.49 3.05-7.05 5.68-11 8.21-1.95 1.42-3.89 2.86-5.81 4.31-1.04 0.78-2.08 1.56-3.15 2.36-1.91 1.46-3.8 2.96-5.64 4.51-0.77 0.64-1.54 1.28-2.34 1.94-0.67 0.59-1.34 1.17-2.02 1.76-2.04 1.12-2.04 1.12-4.67 0.99-2.37-0.87-2.37-0.87-4.37-3.87-0.7-3.92-0.9-7.9-1.19-11.9-0.08-1.16-0.17-2.33-0.25-3.53-1.5-23.2 0.7-45.3 10.4-66.6 0.31-0.7 0.62-1.4 0.94-2.11 12.3-27.7 31.6-49.1 56.1-66.9 1-0.73 2-1.46 3.03-2.21 32.4-22.2 73.3-31.6 112-37.4 3.14-0.51 6.23-1.18 9.33-1.89 9.54-2.14 19.2-3.53 28.9-5.01 3.08-0.47 6.15-0.96 9.23-1.45 1.86-0.28 3.72-0.57 5.58-0.85 1.27-0.21 1.27-0.21 2.57-0.41 4.9-0.73 8.94-0.74 13.8 0.22z" fill="#000102"/>
<path transform="translate(862,268)" d="m0 0c4.21 1.94 5.75 4.06 8 8 0.74 0.72 1.49 1.44 2.25 2.19 3.12 3.19 5.47 6.62 7.97 10.3 2.02 2.84 4.23 5.39 6.62 7.93 1.34 1.82 1.75 3.36 2.16 5.57h2c5.83 6.82 10.8 14.5 15.7 22 1.59 2.43 3.19 4.85 4.79 7.27 7.51 11.4 14.8 22.8 21.5 34.7 0.71 1.23 0.71 1.23 1.42 2.49 11.2 19.6 20.5 39.7 26.6 61.5 0.47 1.68 0.47 1.68 0.96 3.39 3.91 14.7 5.11 29.7 5.16 44.9 0.01 0.84 0.01 1.67 0.02 2.54-0.1 37.5-16.6 72.8-41.2 100-1.94 1.82-1.94 1.82-4.13 2.89-2.17 0.85-2.17 0.85-2.81 3.93-3.46 3.24-7.26 6.08-11 9-1.24 1.02-1.24 1.02-2.51 2.05-5.67 4.43-11.6 7.72-18.1 10.8-0.79 0.38-1.58 0.76-2.39 1.15-5.03 2.33-10.4 4.67-16 4.97-2-2-2-2-2.23-5.24 0.01-1.51 0.02-3.02 0.05-4.53 0.01-1.29 0.01-1.29 0.02-2.62 0.16-14 0.58-28.1 0.96-42.1 2.43-87 2.43-87 1.56-174-0.05-1.54-0.1-3.08-0.14-4.61-0.04-1.11-0.04-1.11-0.07-2.24-0.11-3.74-0.16-7.47-0.11-11.2 0.01-0.74 0.02-1.48 0.02-2.24 0.03-2.03 0.07-4.06 0.12-6.09 0.15-3.16 0.15-3.16-2.18-5.05-3.53 0-3.53 0-7 1-2.73 3.54-2.37 7.91-2.5 12.2-0.27 6.16-0.95 11.8-2.5 17.8-0.91 5.36-1.33 10.7-1.72 16.1-0.26 2.69-0.74 5.23-1.28 7.87-0.28 2.08-0.55 4.17-0.81 6.25-0.77 5.57-1.89 10.9-3.25 16.4-1.49 5.97-2.46 11.7-2.76 17.9-0.18 2.58-0.65 4.99-1.18 7.52-0.16 1.41-0.31 2.83-0.44 4.25-0.32 3.05-0.79 5.96-1.5 8.94-0.9 3.83-1.48 7.65-2 11.6-0.64 4.71-1.48 9.26-2.62 13.9-1.28 5.24-1.85 10.3-2.2 15.6-0.27 3.14-0.9 6.04-1.63 9.09-2.31 10.1-3.88 20.2-4.4 30.6-0.31 4.45-1.05 8.75-2.21 13-3.48-0.86-5.52-1.44-7.87-4.21-0.52-0.9-1.03-1.8-1.57-2.73-0.59-0.99-1.18-1.98-1.78-3.01-0.59-1-1.18-2.01-1.78-3.05-1.12-1.78-2.24-3.55-3.38-5.31-1.92-3.01-3.83-6.03-5.71-9.07-4.33-6.96-8.94-13.3-14.3-19.5-2.88-3.36-5.59-6.84-8.3-10.3-7.29-9.48-7.29-9.48-15.9-17.8-4.96-4.1-9.85-9.65-11.4-16-0.26-6.41 0.51-12.4 1.62-18.7 0.18-1 0.36-2 0.54-3.04 3.1-16.7 8.22-32.6 14.8-48.3 0.34-0.8 0.68-1.61 1.03-2.43 7.1-16.6 15.8-32.1 25.2-47.6 0.57-0.94 1.14-1.89 1.72-2.86 3.29-5.38 6.74-10.6 10.4-15.8 1.6-2.26 3.17-4.55 4.73-6.85 10.8-15.9 22.1-31.4 34-46.5 1-1.29 1.99-2.58 2.99-3.87s2.01-2.59 3.01-3.88c0.47-0.61 0.94-1.22 1.42-1.85 3.35-4.29 3.35-4.29 5.58-5.4z" fill="#000102"/>
<path transform="translate(348,686)" d="m0 0c8.1 1.67 15.8 4.22 23.6 6.94 0.97 0.33 1.93 0.67 2.93 1.02 5.46 1.92 10.8 3.96 16.2 6.2 3.22 1.18 6.48 1.75 9.85 2.35 3.15 0.64 6.1 1.66 9.13 2.72 2.33 0.78 4.67 1.41 7.05 2.02 8.41 2.24 16.6 5.16 24.9 7.95 2.93 0.98 5.88 1.92 8.83 2.86 5.94 1.99 11.7 4.42 17.4 6.97 1.58 0.71 3.16 1.41 4.75 2.11 20.1 8.85 20.1 8.85 29.3 14.6 2.2 1.42 2.2 1.42 5.14 2.28v2c0.59 0.12 1.19 0.25 1.8 0.38 3.46 0.98 6.21 3.11 9.14 5.12 0.65 0.44 1.31 0.89 1.99 1.35 5.45 3.7 10.9 7.46 16.3 11.2 2.73 1.91 2.73 1.91 5.44 3.42 2.49 1.57 4.14 3.19 6.05 5.43 0.58 0.67 1.16 1.34 1.76 2.02 1.48 1.95 2.49 3.84 3.55 6.04-3.27-0.95-6.54-1.91-9.81-2.88-0.93-0.26-1.86-0.53-2.82-0.81-0.89-0.27-1.78-0.53-2.7-0.8-1.24-0.36-1.24-0.36-2.49-0.73-2.18-0.78-2.18-0.78-5.18-2.78-1.71-0.55-3.44-1.03-5.17-1.48-1.05-0.27-2.09-0.55-3.17-0.83-1.12-0.29-2.25-0.58-3.41-0.88-19.4-5.12-38.3-11-57.1-18-1.71-0.63-3.43-1.2-5.15-1.76-13.8-4.73-27.1-11.3-40-18-1.08-0.56-2.16-1.12-3.28-1.7-50-26.5-50-26.5-64.7-42.3v-2z" fill="#FEFFFF"/>
<path transform="translate(0,1544)" d="m0 0c3.37 3.37 3.37 3.37 3.48 7.42 0.04 1.29 0.04 1.29 0.09 2.61 0.02 0.9 0.04 1.8 0.05 2.72 0.18 5.83 0.47 11.5 1.38 17.2 0.27 2.88 0.5 5.76 0.72 8.64 0.15 2.38 0.15 2.38 1.28 4.36 0.1 1.46 0.13 2.92 0.12 4.38 0.01 0.77 0.01 1.54 0.01 2.33-0.13 2.22-0.52 4.16-1.13 6.29h-6v-56z" fill="#000102"/>
<path transform="translate(527,391)" d="m0 0 4 2v19h-2c-2.07-3.1-2.24-3.73-2.2-7.23 0.01-0.8 0.02-1.61 0.02-2.43 0.02-0.84 0.04-1.67 0.06-2.53 0-0.84 0.01-1.69 0.02-2.56 0.03-2.08 0.06-4.17 0.1-6.25z" fill="#FBFFFF"/>
<path transform="translate(1321,873)" d="m0 0 1 2c0.99-0.33 1.98-0.66 3-1l2 15-4-1c-1.42-2.83-1.35-5.47-1.56-8.62-0.09-1.19-0.17-2.38-0.26-3.61-0.06-0.91-0.12-1.83-0.18-2.77z" fill="#FBFFFF"/>
<path transform="translate(949,393)" d="m0 0c3.89 5.83 6.27 12.2 8 19-3-1-3-1-4.64-4.02-0.55-1.26-1.08-2.52-1.61-3.79-0.28-0.63-0.56-1.26-0.85-1.91-1.16-2.74-1.97-4.74-1.57-7.73 0.22-0.51 0.44-1.02 0.67-1.55z" fill="#FBFFFF"/>
<path transform="translate(877,1254)" d="M0 0 C1.94 0.62 1.94 0.62 4 2 C4.69 4.69 4.69 4.69 5 8 C5.34 9.83 5.34 9.83 5.69 11.69 C6 15 6 15 4 18 C3.33 15.38 2.66 12.75 2 10.12 C1.81 9.38 1.62 8.63 1.42 7.86 C0 2.23 0 2.23 0 0 Z " fill="#FBFFFF"/>
<path transform="translate(873,1216)" d="m0 0c1.52 1.21 1.52 1.21 3 3 0.07 2.26 0.07 2.26-0.31 4.69-0.18 1.21-0.18 1.21-0.37 2.45-0.1 0.61-0.21 1.23-0.32 1.86h2v3c-1.95-0.73-1.95-0.73-4-2-0.64-2.02-0.64-2.02-0.81-4.38-0.07-0.77-0.14-1.54-0.21-2.33 0.02-2.27 0.37-4.12 1.02-6.29z" fill="#FBFFFF"/>
<path transform="translate(553,1205)" d="m0 0c4.11 1.45 7.5 3.4 11 6v2h2l-1 4v-2h-3v-3c-1.18-0.19-1.18-0.19-2.38-0.38-2.62-0.62-2.62-0.62-4.62-2.62l-2-1v-3z" fill="#FBFFFF"/>
<path transform="translate(429,434)" d="m0 0c1.5 1.12 1.5 1.12 3 3v6c1.46 1.63 1.46 1.63 3 3v4h-2c-0.87-1.72-1.72-3.45-2.56-5.19-0.72-1.44-0.72-1.44-1.44-2.92-1.1-3.17-0.97-4.73 0-7.89z" fill="#FBFFFF"/>
<path transform="translate(401,904)" d="m0 0c5.75 0.88 5.75 0.88 8 2v2h2v4c-4.43-1.39-6.92-3.56-10-7v-1z" fill="#FBFFFF"/>
<path transform="translate(421,419)" d="m0 0c1.71 1.62 3.37 3.29 5 5v2l2 1c0.62 2.56 0.62 2.56 1 5-1.86-0.23-1.86-0.23-4-1-1.27-1.96-1.27-1.96-2.25-4.38-0.34-0.79-0.67-1.58-1.02-2.39-0.73-2.23-0.73-2.23-0.73-5.23z" fill="#FBFFFF"/>
<path transform="translate(1295,795)" d="m0 0h3l2 7h2l1 7h-2c-0.27-0.54-0.53-1.09-0.8-1.64-0.36-0.72-0.71-1.44-1.08-2.17-0.34-0.71-0.69-1.42-1.05-2.15-1.14-2.25-1.14-2.25-3.07-5.04v-3z" fill="#FBFFFF"/>
<path transform="translate(817,668)" d="M0 0 C3 1 3 1 4.1 2.71 C4.42 3.4 4.73 4.1 5.06 4.81 C5.38 5.5 5.7 6.19 6.04 6.89 C6.35 7.59 6.67 8.28 7 9 C7.66 10.34 8.33 11.67 9 13 C7.17 12.84 7.17 12.84 5 12 C3.52 9.53 3.52 9.53 2.25 6.5 C1.82 5.5 1.39 4.5 0.95 3.47 C0 1 0 1 0 0 Z " fill="#FBFFFF"/>
<path transform="translate(693,1073)" d="m0 0h2v3l2 1v10l-2-4-2-1c-0.85-3.56-1.17-5.49 0-9z" fill="#FBFFFF"/>
<path transform="translate(1028,975)" d="m0 0c1.94 0.56 1.94 0.56 4 2 0.75 3.62 0.75 3.62 1 7h-3c-1.86-3.13-2.2-5.37-2-9z" fill="#FBFFFF"/>
<path transform="translate(0,1534)" d="m0 0h1v7h2l2 9c-4.91-4.91-4.91-4.91-5.2-8.48 0.03-0.89 0.05-1.79 0.08-2.71 0.01-0.9 0.03-1.8 0.05-2.73 0.02-0.69 0.05-1.37 0.07-2.08z" fill="#FBFFFF"/>
<path transform="translate(727,1193)" d="m0 0 2 2-2 2 2 2c0.71 1.98 1.39 3.98 2 6h-3l-4-9 3-3z" fill="#FBFFFF"/>
<path transform="translate(636,926)" d="m0 0c3.01 2.01 4.78 3.55 6 7 0.12 2.75 0.12 2.75 0 5h-2c-0.67-1.62-1.34-3.25-2-4.88-0.37-0.9-0.74-1.8-1.12-2.74-0.88-2.38-0.88-2.38-0.88-4.38z" fill="#FBFFFF"/>
<path transform="translate(894,306)" d="m0 0c5.35 3.04 7.94 5.13 10 11l-2 2c-0.58-0.89-1.15-1.77-1.75-2.69-1.42-2.14-2.87-4.06-4.5-6.06-1.75-2.25-1.75-2.25-1.75-4.25z" fill="#FBFFFF"/>
<path transform="translate(747,1238)" d="m0 0c2.86 1.28 5.07 2.49 7 5v4l2 1h-4c-3-5.75-3-5.75-3-8h-2v-2z" fill="#FBFFFF"/>
<path transform="translate(1026,962)" d="m0 0c2.5 1.12 2.5 1.12 5 3 0.31 3.19 0.31 3.19 0 6l-4-1-1-8z" fill="#FBFFFF"/>
<path transform="translate(1327,918)" d="m0 0 4 1v14h-1l-2-10h-1v-5z" fill="#FBFFFF"/>
<path transform="translate(404,382)" d="m0 0c3 1 3 1 5 3l1-2 2 4h-2l-1 3c-2.8-2.53-4.46-4.2-5-8z" fill="#FBFFFF"/>
<path transform="translate(712,1164)" d="m0 0c2.5 2.31 2.5 2.31 5 5v3l1 3h-3l-1.5-4.38c-0.28-0.81-0.56-1.62-0.84-2.46-0.66-2.16-0.66-2.16-0.66-4.16z" fill="#FBFFFF"/>
<path transform="translate(534,691)" d="m0 0c3 1 3 1 4.06 2.81 0.31 0.72 0.62 1.45 0.94 2.19 0.37 0.74 0.74 1.49 1.12 2.25 0.29 0.58 0.58 1.15 0.88 1.75h-3c-2.67-2.78-3.48-5.22-4-9z" fill="#FBFFFF"/>
</svg>
